# xmcd
#
# Track frame offsets:
#	150
#	15277
#	32382
#	46237
#	62357
#	77312
#	91775
#	110488
#	125361
#	141888
#	159649
#	174015
#	189648
#	205564
#	224865
#	239534
#	256766
#	271339
#	284794
#	299297
#	314183
#
# Disc length: 4425 seconds
#
# Revision: 1
# Processed by: cddbd v1.5.2PL0 Copyright (c) Steve Scherf et al.
# Submitted via: audiograbber 1.83.01
#
DISCID=26114715
DTITLE=Various Artist - So Country 2015 [Disc 2]
DYEAR=2015
DGENRE=Country
TTITLE0=Eli Young Band - Dust
TTITLE1=The Band Perry - Chainsaw
TTITLE2=The Wolfe Brothers - That Kinda Night
TTITLE3=The Doobie Brothers with Brad Paisley - Rockin' Down The Highway
TTITLE4=Jerrod Niemann - Donkey
TTITLE5=Jake Owen - Beachin'
TTITLE6=Miranda Lambert - Automatic
TTITLE7=Tyler Farr - A Guy Walks Into A Bar
TTITLE8=Maddie and Tae - Girl In A Country Song
TTITLE9=The Swon Brothers - Pray For You
TTITLE10=Johnny Cash - She Used To Love Me A Lot
TTITLE11=McAlister Kemp - Fight Me
TTITLE12=Amber Lawrence - Superhero
TTITLE13=Dierks Bentley - Drunk On A Plane
TTITLE14=Steven Lee Olsen - Raised By A Good Time
TTITLE15=Luke Bryan - Play It Again
TTITLE16=Ruthie Collins - Ramblin' Man
TTITLE17=Dylan Scott - Lay It On Me
TTITLE18=The Grahams - Revival Time
TTITLE19=Sara Evans - Put My Heart Down
TTITLE20=Ruby Boots - Middle Of Nowhere
EXTD=
EXTT0=
EXTT1=
EXTT2=
EXTT3=
EXTT4=
EXTT5=
EXTT6=
EXTT7=
EXTT8=
EXTT9=
EXTT10=
EXTT11=
EXTT12=
EXTT13=
EXTT14=
EXTT15=
EXTT16=
EXTT17=
EXTT18=
EXTT19=
EXTT20=
PLAYORDER=
